<svg id="Capa_1" data-name="Capa 1" xmlns="http://www.w3.org/2000/svg" viewBox="0 0 66.48 13.24"><defs><style>.cls-1{fill:#009ada;}.cls-2{fill:#494a47;}.cls-3{fill:#6293cb;}.cls-4{fill:#60afe3;}.cls-5{fill:#96c8ec;}</style></defs><title>Logo 01</title><path class="cls-1" d="M36.69,5.52,35.27,4.7h-.16a3.42,3.42,0,0,1-1.78-.52l0,.09v0l0,.1v.06l0,.08h0v0l0,.1v0l0,.11v0l.05.13a3.7,3.7,0,0,0,.21.42l.07.11h0l0,0,0,0,0,0h0l.06.09,0,0,.06.08,0,.06v0l0,0a3.65,3.65,0,0,0,.37.38l0,0,.06.05.07.06,0,0,.1.08h0l.26.16.12.06h0a3.06,3.06,0,0,0,1.46-1.31M40.51,3.6s0-.08,0-.12V3.33h0s0-.08,0-.12v0l0-.11h0V3a1.64,1.64,0,0,0-1-.32h0a2.62,2.62,0,0,0-.78.13V4.48a3.39,3.39,0,0,1,.54,1.94h0l0,0,0,0A3.6,3.6,0,0,0,39.63,6l0,0,0-.06.06-.08,0,0,.08-.11h0L40,5.41l.06-.12h0l0-.05h0a3.57,3.57,0,0,0,.17-.41l.06-.18,0-.1h0v0l0-.11v0l0-.12v0l0-.13h0V3.9s0-.09,0-.14v0c0-.05,0-.1,0-.14M37,5.58A3.38,3.38,0,0,1,35.62,7l.09,0,.19.06h0l.09,0h0l.11,0h0l.12,0h0l.13,0h.9l.11,0h0l.11,0h0l.1,0h.06l.09,0h0l.11,0h0l.12,0h0a3.71,3.71,0,0,0,.55-.26l.11-.07h0a3.08,3.08,0,0,0-.41-1.92Zm-.28-3.9a2.54,2.54,0,0,1,1-1.58h-.08l-.12,0h0l-.13,0h-1l-.11,0h0l-.1,0H36L36,.12h0l-.11,0h0l-.12,0h0l-.13.05a3.59,3.59,0,0,0-.42.21L35,.55h0a3.09,3.09,0,0,0,.4,1.92Zm.34,0,1.43.83a2.91,2.91,0,0,1,.92-.16,2.05,2.05,0,0,1,.93.21V2.5l0-.12v0l-.05-.13h0A3.46,3.46,0,0,0,40,1.81L40,1.7h0l0,0,0,0,0,0-.07-.1,0,0-.06-.08,0-.05,0,0,0,0L39.4,1,39.28.9l0,0-.06,0L39.12.76l0,0L39,.66h0L38.71.48,38.59.42h0l0,0h0L38.16.23A2,2,0,0,0,37.08,1.7M35.15,4.38V2.75A3.37,3.37,0,0,1,34.62.81h0l0,0,0,0a3.73,3.73,0,0,0-.38.37l0,0-.05.06L34,1.4l0,0-.08.1h0l-.16.26-.06.12h0l0,0h0a3.65,3.65,0,0,0-.17.41l-.06.19h0l0,.08h0v0l0,.1v0l0,.12V3l0,.13v0s0,.08,0,.13v0s0,.09,0,.13v0c0,.05,0,.1,0,.14h0s0,.07,0,.12v0a3.08,3.08,0,0,0,1.82.62Z"/><path class="cls-1" d="M38.18,9.16H35.56a.28.28,0,0,0,0,.56h2.61a.28.28,0,1,0,0-.56"/><path class="cls-1" d="M38.18,7.59H35.56a.28.28,0,0,0,0,.56h2.61a.28.28,0,1,0,0-.56"/><path class="cls-1" d="M38.18,8.37H35.56a.28.28,0,0,0,0,.56h2.61a.28.28,0,1,0,0-.56"/><path class="cls-1" d="M37.49,9.94H36.25a.28.28,0,0,0,0,.56h1.25a.28.28,0,0,0,0-.56"/><path class="cls-2" d="M13.53,13.21V11h.22v2.26Z"/><path class="cls-2" d="M16.32,13.21V11.36l-.82,1.43h-.13l-.82-1.43v1.85h-.22V11h.23l.88,1.54L16.31,11h.23v2.26Z"/><path class="cls-2" d="M17.1,13.21V11H18a.59.59,0,0,1,.27.06.72.72,0,0,1,.21.16.77.77,0,0,1,.14.23.69.69,0,0,1,.05.26.77.77,0,0,1,0,.27.72.72,0,0,1-.13.23.69.69,0,0,1-.21.16.58.58,0,0,1-.27.06h-.73v.83Zm.22-1H18a.38.38,0,0,0,.18,0,.46.46,0,0,0,.14-.11.54.54,0,0,0,.09-.17.61.61,0,0,0,0-.2.54.54,0,0,0,0-.2.55.55,0,0,0-.1-.16.46.46,0,0,0-.15-.11.41.41,0,0,0-.18,0h-.7Z"/><path class="cls-2" d="M19.08,13.21V11h1a.59.59,0,0,1,.27.06.72.72,0,0,1,.35.39.7.7,0,0,1,0,.26.76.76,0,0,1,0,.24.73.73,0,0,1-.1.2.61.61,0,0,1-.16.15.56.56,0,0,1-.21.08l.55.87H20.5L20,12.38H19.3v.83Zm.22-1H20a.38.38,0,0,0,.18,0,.43.43,0,0,0,.14-.12.57.57,0,0,0,.09-.17.6.6,0,0,0,0-.19.53.53,0,0,0,0-.2.53.53,0,0,0-.1-.16.46.46,0,0,0-.15-.11.4.4,0,0,0-.18,0H19.3Z"/><path class="cls-2" d="M22.67,13v.2H21.16V11h1.49v.2H21.38V12h1.1v.19h-1.1V13Z"/><path class="cls-2" d="M24.36,11.38a.69.69,0,0,0-.25-.17.92.92,0,0,0-.36-.07.68.68,0,0,0-.44.11.38.38,0,0,0-.14.31.34.34,0,0,0,0,.17.33.33,0,0,0,.11.11.77.77,0,0,0,.2.08l.28.07.33.09a.94.94,0,0,1,.25.12.5.5,0,0,1,.16.17.54.54,0,0,1,.05.25.57.57,0,0,1-.06.27.54.54,0,0,1-.17.19.75.75,0,0,1-.26.11,1.37,1.37,0,0,1-.33,0,1.34,1.34,0,0,1-.91-.33l.11-.18.14.12.19.1.22.07.25,0a.78.78,0,0,0,.42-.1.33.33,0,0,0,.15-.29.34.34,0,0,0,0-.18.38.38,0,0,0-.13-.12.91.91,0,0,0-.21-.09l-.3-.08-.31-.09a.81.81,0,0,1-.23-.11.43.43,0,0,1-.14-.16.52.52,0,0,1,0-.23.64.64,0,0,1,.06-.28.55.55,0,0,1,.17-.2.77.77,0,0,1,.25-.12,1.13,1.13,0,0,1,.32,0,1.06,1.06,0,0,1,.72.26Z"/><path class="cls-2" d="M25,13.21V11h.22v2.26Z"/><path class="cls-2" d="M26.67,13.23a1,1,0,0,1-.43-.1,1.06,1.06,0,0,1-.34-.26,1.16,1.16,0,0,1-.22-.37,1.21,1.21,0,0,1-.08-.42,1.18,1.18,0,0,1,.08-.43,1.2,1.2,0,0,1,.22-.37,1.09,1.09,0,0,1,.34-.25,1,1,0,0,1,.42-.09.93.93,0,0,1,.43.1,1.08,1.08,0,0,1,.33.26,1.21,1.21,0,0,1,.21.37,1.19,1.19,0,0,1-.23,1.21,1.07,1.07,0,0,1-.33.25A1,1,0,0,1,26.67,13.23Zm-.84-1.14a1,1,0,0,0,.06.35,1,1,0,0,0,.17.3.86.86,0,0,0,.26.21.78.78,0,0,0,.69,0,.85.85,0,0,0,.26-.22,1,1,0,0,0,.17-.3,1,1,0,0,0,.06-.34,1,1,0,0,0-.06-.35,1,1,0,0,0-.17-.3.86.86,0,0,0-.26-.21.73.73,0,0,0-.34-.08.74.74,0,0,0-.35.08.82.82,0,0,0-.26.21,1,1,0,0,0-.17.3A1,1,0,0,0,25.83,12.08Zm.86-1.44-.14-.05.19-.3H27Z"/><path class="cls-2" d="M28.37,11.37v1.84h-.22V11h.17l1.49,1.88V11H30v2.25h-.19Z"/><path class="cls-2" d="M44.78,11H45l.94,2.26h-.24l-.29-.71h-1l-.29.71h-.24Zm.55,1.38-.45-1.12-.46,1.12Z"/><path class="cls-2" d="M46.23,13.21V11h.22V13h1.3v.2Z"/><path class="cls-2" d="M49.31,11.15h-.8v2.06h-.22V11.15h-.8V11h1.83Z"/><path class="cls-2" d="M50.12,11h.19l.94,2.26H51l-.29-.71h-1l-.29.71h-.24Zm.55,1.38-.45-1.12-.46,1.12Z"/><path class="cls-2" d="M52.13,12.07a1.2,1.2,0,0,1,.07-.41,1.12,1.12,0,0,1,.21-.36,1.09,1.09,0,0,1,.34-.26,1,1,0,0,1,.45-.1,1,1,0,0,1,.52.14.84.84,0,0,1,.32.36l-.17.11a.67.67,0,0,0-.13-.19.73.73,0,0,0-.17-.12.69.69,0,0,0-.18-.07l-.19,0a.76.76,0,0,0-.36.08.82.82,0,0,0-.26.22.93.93,0,0,0-.16.3,1.09,1.09,0,0,0-.05.34,1,1,0,0,0,.06.36,1,1,0,0,0,.18.3.86.86,0,0,0,.27.21.74.74,0,0,0,.34.08l.2,0a.73.73,0,0,0,.19-.08.83.83,0,0,0,.17-.13.69.69,0,0,0,.13-.19l.18.1a.69.69,0,0,1-.15.22,1,1,0,0,1-.22.16,1.12,1.12,0,0,1-.26.1,1,1,0,0,1-.27,0,.9.9,0,0,1-.43-.1,1.11,1.11,0,0,1-.33-.26,1.23,1.23,0,0,1-.22-.37A1.19,1.19,0,0,1,52.13,12.07Z"/><path class="cls-2" d="M55.13,11h.19l.94,2.26H56l-.29-.71h-1l-.29.71h-.24Zm.55,1.38-.45-1.12-.46,1.12Z"/><path class="cls-2" d="M56.58,13.21V11h.22V13h1.3v.2Z"/><path class="cls-2" d="M58.43,13.21V11h.22v2.26Z"/><path class="cls-2" d="M59.22,13.21V11H60a1.16,1.16,0,0,1,.47.09,1,1,0,0,1,.34.24,1,1,0,0,1,.2.36,1.36,1.36,0,0,1,.07.44,1.35,1.35,0,0,1-.08.46,1,1,0,0,1-.22.36,1,1,0,0,1-.34.23,1.18,1.18,0,0,1-.45.08Zm1.62-1.13a1.17,1.17,0,0,0-.06-.37.85.85,0,0,0-.17-.29.76.76,0,0,0-.27-.19.93.93,0,0,0-.37-.07h-.54V13H60a.9.9,0,0,0,.37-.07.75.75,0,0,0,.27-.2.85.85,0,0,0,.16-.29A1.19,1.19,0,0,0,60.84,12.08Z"/><path class="cls-2" d="M62.11,11h.19l.94,2.26H63l-.29-.71h-1l-.29.71h-.24Zm.55,1.38-.45-1.12-.46,1.12Z"/><path class="cls-2" d="M63.56,13.21V11h.77a1.16,1.16,0,0,1,.47.09,1,1,0,0,1,.34.24,1,1,0,0,1,.2.36,1.36,1.36,0,0,1,.07.44,1.35,1.35,0,0,1-.08.46,1,1,0,0,1-.22.36,1,1,0,0,1-.34.23,1.18,1.18,0,0,1-.45.08Zm1.62-1.13a1.17,1.17,0,0,0-.06-.37.85.85,0,0,0-.17-.29.76.76,0,0,0-.27-.19.93.93,0,0,0-.37-.07h-.54V13h.54a.9.9,0,0,0,.37-.07.76.76,0,0,0,.27-.2.86.86,0,0,0,.16-.29A1.19,1.19,0,0,0,65.18,12.08Z"/><path class="cls-3" d="M31.4,13.21V11h.77a1.16,1.16,0,0,1,.47.09,1,1,0,0,1,.34.24,1,1,0,0,1,.2.36,1.36,1.36,0,0,1,.07.44,1.35,1.35,0,0,1-.08.46,1,1,0,0,1-.22.36,1,1,0,0,1-.34.23,1.18,1.18,0,0,1-.45.08ZM33,12.08a1.17,1.17,0,0,0-.06-.37.85.85,0,0,0-.17-.29.76.76,0,0,0-.27-.19.93.93,0,0,0-.37-.07h-.54V13h.54a.9.9,0,0,0,.37-.07.75.75,0,0,0,.27-.2.85.85,0,0,0,.16-.29A1.19,1.19,0,0,0,33,12.08Z"/><path class="cls-3" d="M33.67,13.21V11h.22v2.26Z"/><path class="cls-3" d="M36.09,12.88a1,1,0,0,1-.72.35.9.9,0,0,1-.42-.1,1.11,1.11,0,0,1-.33-.26,1.23,1.23,0,0,1-.22-.37,1.16,1.16,0,0,1-.08-.42,1.21,1.21,0,0,1,.08-.43,1.16,1.16,0,0,1,.22-.36,1.07,1.07,0,0,1,.33-.25.93.93,0,0,1,.42-.09,1.16,1.16,0,0,1,.3,0,.9.9,0,0,1,.24.1.79.79,0,0,1,.18.16,1,1,0,0,1,.13.2l-.17.11a.74.74,0,0,0-.29-.31.82.82,0,0,0-.4-.1.72.72,0,0,0-.34.08.82.82,0,0,0-.26.21,1,1,0,0,0-.16.3,1.1,1.1,0,0,0-.06.35,1,1,0,0,0,.06.36,1,1,0,0,0,.18.3.87.87,0,0,0,.27.21.75.75,0,0,0,.34.08.81.81,0,0,0,.37-.09,1.1,1.1,0,0,0,.34-.29v-.37h-.5V12.1h.69v1.11h-.19Z"/><path class="cls-3" d="M36.73,13.21V11H37v2.26Z"/><path class="cls-3" d="M39.12,11.15h-.8v2.06h-.22V11.15h-.8V11h1.83Z"/><path class="cls-3" d="M39.93,11h.19l.94,2.26h-.24l-.29-.71h-1l-.29.71H39Zm.55,1.38L40,11.22l-.46,1.12Z"/><path class="cls-3" d="M41.38,13.21V11h.22V13h1.3v.2Z"/><path class="cls-2" d="M5.74,9.13V4.47L3.92,7.94H3.18L1.37,4.47V9.13H0v-7H1.47l2.08,4,2.1-4H7.1v7Z"/><path class="cls-2" d="M9.81,9.23a2,2,0,0,1-.7-.12,1.68,1.68,0,0,1-.56-.35,1.61,1.61,0,0,1-.37-.52A1.57,1.57,0,0,1,8,7.58,1.44,1.44,0,0,1,8.2,6.9a1.56,1.56,0,0,1,.46-.53A2.28,2.28,0,0,1,9.35,6a3,3,0,0,1,.89-.12,3.81,3.81,0,0,1,.68.06,2.79,2.79,0,0,1,.59.17v-.3A1,1,0,0,0,11.22,5a1.21,1.21,0,0,0-.87-.28,2.29,2.29,0,0,0-.81.15,3.78,3.78,0,0,0-.81.44l-.41-.84a3.83,3.83,0,0,1,2.16-.66,2.53,2.53,0,0,1,1.74.55A2,2,0,0,1,12.84,6V7.6a.47.47,0,0,0,.07.3.32.32,0,0,0,.24.1V9.13a3,3,0,0,1-.58.07A.88.88,0,0,1,12,9a.72.72,0,0,1-.25-.45l0-.29a2.3,2.3,0,0,1-.84.69A2.41,2.41,0,0,1,9.81,9.23Zm.38-1a1.72,1.72,0,0,0,.64-.12,1.16,1.16,0,0,0,.47-.32.48.48,0,0,0,.22-.38V6.85A3.23,3.23,0,0,0,11,6.71a2.79,2.79,0,0,0-.54-.05,1.42,1.42,0,0,0-.84.23.7.7,0,0,0-.33.59A.71.71,0,0,0,9.55,8,.93.93,0,0,0,10.18,8.26Z"/><path class="cls-2" d="M16,9.23A4,4,0,0,1,14.76,9a3.12,3.12,0,0,1-1.07-.59l.5-.83a4.27,4.27,0,0,0,.93.51,2.48,2.48,0,0,0,.9.17,1.13,1.13,0,0,0,.62-.15.48.48,0,0,0,.23-.43.43.43,0,0,0-.27-.41,5.76,5.76,0,0,0-.87-.3q-.51-.14-.86-.27a2.21,2.21,0,0,1-.57-.29A1,1,0,0,1,14,6.06a1.2,1.2,0,0,1-.1-.51A1.61,1.61,0,0,1,14,4.84a1.56,1.56,0,0,1,.43-.54A2,2,0,0,1,15.1,4a2.64,2.64,0,0,1,.81-.12A3.47,3.47,0,0,1,17,4a2.66,2.66,0,0,1,.94.54l-.53.8a3.12,3.12,0,0,0-.77-.44,2.11,2.11,0,0,0-.74-.14,1.07,1.07,0,0,0-.56.14.48.48,0,0,0-.23.45.43.43,0,0,0,.05.23.48.48,0,0,0,.17.16,1.68,1.68,0,0,0,.31.13l.48.13q.53.14.92.28a2.51,2.51,0,0,1,.62.32A1.13,1.13,0,0,1,18,7a1.27,1.27,0,0,1,.11.56,1.44,1.44,0,0,1-.56,1.2A2.43,2.43,0,0,1,16,9.23Z"/><path class="cls-2" d="M22.11,8.86a5.87,5.87,0,0,1-.65.24,2.76,2.76,0,0,1-.81.12,1.9,1.9,0,0,1-.52-.07,1.14,1.14,0,0,1-.43-.22,1.08,1.08,0,0,1-.29-.4,1.43,1.43,0,0,1-.11-.59V5h-.68v-1h.68V2.25h1.33V3.94h1.09V5H20.62V7.49a.47.47,0,0,0,.14.39.55.55,0,0,0,.35.11,1.22,1.22,0,0,0,.41-.07l.32-.12Z"/><path class="cls-2" d="M25.08,9.23A2.89,2.89,0,0,1,24,9a2.59,2.59,0,0,1-.86-.58,2.56,2.56,0,0,1-.55-.85,2.73,2.73,0,0,1-.19-1,2.89,2.89,0,0,1,.19-1,2.55,2.55,0,0,1,.54-.86,2.6,2.6,0,0,1,.87-.59,2.89,2.89,0,0,1,1.14-.22,2.82,2.82,0,0,1,1.13.22,2.61,2.61,0,0,1,.85.58,2.49,2.49,0,0,1,.53.85,2.83,2.83,0,0,1,.18,1c0,.09,0,.17,0,.25a1,1,0,0,1,0,.2h-4a1.54,1.54,0,0,0,.15.54,1.33,1.33,0,0,0,.73.66,1.4,1.4,0,0,0,.5.09,1.53,1.53,0,0,0,.75-.19,1,1,0,0,0,.48-.51l1.14.32a2.32,2.32,0,0,1-.92,1A2.84,2.84,0,0,1,25.08,9.23ZM26.43,6.1A1.38,1.38,0,0,0,26,5.16a1.39,1.39,0,0,0-1.43-.26,1.29,1.29,0,0,0-.41.26,1.35,1.35,0,0,0-.29.41,1.43,1.43,0,0,0-.13.52Z"/><path class="cls-2" d="M31.7,5.09a2.62,2.62,0,0,0-1.08.23,1.36,1.36,0,0,0-.68.67V9.13H28.61V3.94h1.22V5a2.36,2.36,0,0,1,.33-.48,2.52,2.52,0,0,1,.41-.37A1.88,1.88,0,0,1,31,4a1.21,1.21,0,0,1,.43-.08h.27Z"/><path class="cls-2" d="M41.84,9.13v-7h1.37v7Z"/><path class="cls-2" d="M46.46,9.23A4,4,0,0,1,45.18,9a3.12,3.12,0,0,1-1.07-.59l.5-.83a4.27,4.27,0,0,0,.93.51,2.48,2.48,0,0,0,.9.17,1.13,1.13,0,0,0,.62-.15.48.48,0,0,0,.23-.43A.43.43,0,0,0,47,7.3a5.76,5.76,0,0,0-.87-.3q-.51-.14-.86-.27a2.21,2.21,0,0,1-.57-.29,1,1,0,0,1-.32-.38,1.2,1.2,0,0,1-.1-.51,1.61,1.61,0,0,1,.15-.71,1.56,1.56,0,0,1,.43-.54A2,2,0,0,1,45.52,4a2.64,2.64,0,0,1,.81-.12A3.47,3.47,0,0,1,47.42,4a2.66,2.66,0,0,1,.94.54l-.53.8a3.12,3.12,0,0,0-.77-.44,2.11,2.11,0,0,0-.74-.14,1.07,1.07,0,0,0-.56.14.48.48,0,0,0-.23.45.43.43,0,0,0,.05.23.48.48,0,0,0,.17.16,1.68,1.68,0,0,0,.31.13l.48.13q.53.14.92.28a2.51,2.51,0,0,1,.62.32,1.13,1.13,0,0,1,.36.41,1.27,1.27,0,0,1,.11.56A1.44,1.44,0,0,1,48,8.79,2.43,2.43,0,0,1,46.46,9.23Z"/><path class="cls-2" d="M50.84,9.23a2,2,0,0,1-.7-.12,1.68,1.68,0,0,1-.56-.35,1.61,1.61,0,0,1-.37-.52,1.57,1.57,0,0,1-.13-.65,1.44,1.44,0,0,1,.16-.68,1.56,1.56,0,0,1,.46-.53,2.28,2.28,0,0,1,.7-.34,3,3,0,0,1,.89-.12,3.81,3.81,0,0,1,.68.06,2.79,2.79,0,0,1,.59.17v-.3A1,1,0,0,0,52.25,5a1.21,1.21,0,0,0-.87-.28,2.29,2.29,0,0,0-.81.15,3.78,3.78,0,0,0-.81.44l-.41-.84a3.83,3.83,0,0,1,2.16-.66,2.53,2.53,0,0,1,1.74.55A2,2,0,0,1,53.87,6V7.6a.47.47,0,0,0,.07.3.32.32,0,0,0,.24.1V9.13a3,3,0,0,1-.58.07A.88.88,0,0,1,53,9a.72.72,0,0,1-.25-.45l0-.29A2.3,2.3,0,0,1,51.9,9,2.41,2.41,0,0,1,50.84,9.23Zm.38-1a1.72,1.72,0,0,0,.64-.12,1.16,1.16,0,0,0,.47-.32.48.48,0,0,0,.22-.38V6.85A3.23,3.23,0,0,0,52,6.71a2.79,2.79,0,0,0-.54-.05,1.42,1.42,0,0,0-.84.23.7.7,0,0,0-.33.59.71.71,0,0,0,.26.56A.93.93,0,0,0,51.21,8.26Z"/><path class="cls-2" d="M59.93,9.13H58.6V6.22a1.52,1.52,0,0,0-.22-.91.72.72,0,0,0-.6-.29,1.14,1.14,0,0,0-.41.08,1.51,1.51,0,0,0-.39.22,1.8,1.8,0,0,0-.33.34,1.34,1.34,0,0,0-.22.44v3H55.1V3.94h1.2v1a2,2,0,0,1,.83-.77,2.67,2.67,0,0,1,1.23-.28,1.57,1.57,0,0,1,.79.18,1.3,1.3,0,0,1,.48.47,2,2,0,0,1,.23.65,4.28,4.28,0,0,1,.06.74Z"/><path class="cls-2" d="M63.24,9.23a2.35,2.35,0,0,1-1-.21,2.32,2.32,0,0,1-.78-.57A2.68,2.68,0,0,1,61,7.59a3,3,0,0,1-.18-1.05,3.09,3.09,0,0,1,.17-1.05,2.74,2.74,0,0,1,.48-.85,2.21,2.21,0,0,1,.73-.57,2.1,2.1,0,0,1,.93-.21,2,2,0,0,1,1,.28,2,2,0,0,1,.72.72v-3h1.33V7.6a.49.49,0,0,0,.07.3.31.31,0,0,0,.24.1V9.13a3,3,0,0,1-.56.07A.92.92,0,0,1,65.33,9a.66.66,0,0,1-.26-.47l0-.33a1.89,1.89,0,0,1-.78.75A2.22,2.22,0,0,1,63.24,9.23Zm.35-1.13A1.24,1.24,0,0,0,64,8a1.35,1.35,0,0,0,.37-.18,1.59,1.59,0,0,0,.3-.28,1.15,1.15,0,0,0,.2-.35V6a1.46,1.46,0,0,0-.22-.4,1.66,1.66,0,0,0-.33-.32,1.74,1.74,0,0,0-.39-.21A1.1,1.1,0,0,0,63.5,5a1.19,1.19,0,0,0-.55.13,1.28,1.28,0,0,0-.43.35,1.67,1.67,0,0,0-.28.51,1.8,1.8,0,0,0-.1.59,1.62,1.62,0,0,0,.11.6,1.55,1.55,0,0,0,.3.49A1.35,1.35,0,0,0,63,8,1.4,1.4,0,0,0,63.58,8.1Z"/><circle class="cls-1" cx="7.08" cy="12.58" r="0.66"/><circle class="cls-4" cx="9.21" cy="12.58" r="0.66"/><circle class="cls-5" cx="11.33" cy="12.58" r="0.66"/></svg>