<svg id="Capa_1" data-name="Capa 1" xmlns="http://www.w3.org/2000/svg" viewBox="0 0 531.14 318.52"><defs><style>.cls-1,.cls-6{fill:#009de0;}.cls-2{fill:#0074bb;}.cls-3{fill:#dc911b;}.cls-4{fill:#fff;}.cls-5{opacity:0.15;}.cls-6{stroke:#009de0;stroke-miterlimit:10;}.cls-7{fill:#3e3e3d;}</style></defs><title>LOGO NEW PROTO editado</title><path class="cls-1" d="M510.93,89.26a48.93,48.93,0,0,0-25.55-17.59L279.11,12.27a48.95,48.95,0,0,0-27.08,0L45.76,71.67a48.88,48.88,0,0,0-35.38,47v81.15a48.87,48.87,0,0,0,35.38,47L252,306.24a48.95,48.95,0,0,0,27.08,0l206.27-59.4a48.88,48.88,0,0,0,35.38-47V118.68a48.82,48.82,0,0,0-9.83-29.42Zm1.42,110.57a40.5,40.5,0,0,1-29.3,38.92l-206.27,59.4a40.56,40.56,0,0,1-22.42,0L48.09,238.75A40.49,40.49,0,0,1,18.8,199.83V118.68A40.5,40.5,0,0,1,48.09,79.76L254.36,20.37a40.31,40.31,0,0,1,22.42,0L483.05,79.76a40.51,40.51,0,0,1,29.3,38.92Z"/><path class="cls-2" d="M528,99.65A59.32,59.32,0,0,0,488.25,61.7L282,2.3a59.63,59.63,0,0,0-32.82,0L42.89,61.7A59.26,59.26,0,0,0,0,118.68v81.15a59.25,59.25,0,0,0,42.89,57l206.27,59.4a59.44,59.44,0,0,0,32.82,0l206.27-59.4a59.26,59.26,0,0,0,42.89-57V118.68A59.13,59.13,0,0,0,528,99.65Zm-7.25,100.18a48.87,48.87,0,0,1-35.38,47l-206.27,59.4a48.95,48.95,0,0,1-27.08,0L45.76,246.84a48.88,48.88,0,0,1-35.38-47V118.68a48.91,48.91,0,0,1,35.38-47L252,12.27a48.95,48.95,0,0,1,27.08,0l206.27,59.4a48.88,48.88,0,0,1,35.38,47Z"/><path class="cls-3" d="M483.05,79.76,276.78,20.37a40.31,40.31,0,0,0-22.42,0L48.09,79.76A40.5,40.5,0,0,0,18.8,118.68v81.15a40.49,40.49,0,0,0,29.29,38.92l206.27,59.4a40.56,40.56,0,0,0,22.42,0l206.27-59.4a40.5,40.5,0,0,0,29.3-38.92V118.68A40.51,40.51,0,0,0,483.05,79.76Zm25.09,120.07a36.46,36.46,0,0,1-26.25,34.87L275.61,294.1a36.2,36.2,0,0,1-20.08,0L49.25,234.7A36.45,36.45,0,0,1,23,199.83V118.68A36.45,36.45,0,0,1,49.25,83.81l206.28-59.4a36.2,36.2,0,0,1,20.08,0l206.28,59.4a36.46,36.46,0,0,1,26.25,34.87Z"/><path class="cls-4" d="M508.14,199.83a36.46,36.46,0,0,1-26.25,34.87L275.61,294.1a36.2,36.2,0,0,1-20.08,0L49.25,234.7A36.45,36.45,0,0,1,23,199.83V118.68A36.45,36.45,0,0,1,49.25,83.81l206.28-59.4a36.2,36.2,0,0,1,20.08,0l206.28,59.4a36.46,36.46,0,0,1,26.25,34.87Z"/><g class="cls-5"><path class="cls-1" d="M261.42,164.5l-28.24-16.31c-1.06.06-2.13.09-3.2.09a68,68,0,0,1-35.5-10.37c.09.56.19,1.16.32,1.87l.13.67c.13.66.26,1.31.4,1.93l.09.43c0,.11.06.25.1.38l.11.46c.14.58.27,1.13.42,1.69l.07.25c0,.11.07.22.1.34l.08.29c.24.86.43,1.5.62,2.09l.2.62c.28.84.54,1.59.79,2.28l.15.42c.35.94.69,1.8,1,2.63a73.12,73.12,0,0,0,4.16,8.42c.43.73.88,1.49,1.37,2.26l.16.26c.2.32.4.61.6.91l.44.68.33.49,0,.08c.38.55.78,1.12,1.28,1.81l.39.54,1.17,1.52c.29.37.6.74.9,1.11l.27.33c.21.26.44.52.66.78a73.21,73.21,0,0,0,7.38,7.46l.42.37c.42.36.85.73,1.29,1.08s1,.79,1.47,1.18l.75.57c.8.6,1.45,1.08,2.06,1.51l.22.15c1.68,1.17,3.42,2.28,5.17,3.28.73.42,1.51.85,2.31,1.28l.27.14,0,0A61.13,61.13,0,0,0,261.42,164.5Zm76.12-38.17c0-.74,0-1.51-.07-2.45l0-.62-.06-1-.05-.86c0-.16,0-.32,0-.48v-.11c-.06-.75-.14-1.53-.25-2.42l-.06-.58c-.1-.78-.2-1.49-.3-2.17l0-.24-.18-1.1c-5.55-4.27-12.4-6.44-20.4-6.44h-.29a52.6,52.6,0,0,0-15.5,2.59l.21,33.42a67.25,67.25,0,0,1,10.69,38.57l.32-.26.39-.33.73-.63a71.41,71.41,0,0,0,7.38-7.38l.44-.51.95-1.14c.43-.53.86-1.08,1.28-1.62l.54-.71c.57-.77,1.07-1.46,1.51-2.11l.12-.17c1.17-1.7,2.26-3.45,3.27-5.22.42-.73.85-1.52,1.26-2.32l.15-.28c.17-.33.33-.67.5-1l.14-.29a72.63,72.63,0,0,0,3.4-8.11c.4-1.14.78-2.33,1.15-3.63.18-.62.37-1.27.54-1.91l0-.09q0-.1.06-.24l.1-.42c.22-.88.37-1.55.5-2.17l.13-.61c.18-.87.33-1.66.46-2.42l.07-.44c.15-.92.27-1.78.38-2.65l0-.24c.1-.81.19-1.71.28-2.7l0-.54c.07-.88.12-1.79.16-2.69v-.47C337.53,128.14,337.54,127.2,337.54,126.33Zm-69.39,39.33a67.3,67.3,0,0,1-28.06,28.56l1.77.64c1.15.4,2.36.78,3.7,1.17l.06,0c.58.16,1.15.33,1.73.48l.08,0,.35.08.39.1c.59.14,1.34.33,2.12.49l.65.14c.85.17,1.64.32,2.41.45l.46.08c.9.14,1.78.27,2.6.37l.27,0c.81.1,1.69.19,2.69.27l.54.05c.89.06,1.79.12,2.69.15l.48,0c.91,0,1.72,0,2.48,0h.38c.72,0,1.49,0,2.44-.06l.63,0,1-.06.83-.05.46,0h.14c.73-.06,1.51-.14,2.41-.24l.56-.07c.79-.09,1.49-.19,2.16-.3l.3,0c.64-.1,1.36-.23,2.22-.39l.64-.12c.69-.14,1.37-.29,2-.44l.35-.08.32-.07.43-.12c.62-.15,1.23-.3,1.83-.47l.2-.05.3-.09.33-.1c.82-.23,1.49-.44,2.12-.64l.58-.19c.85-.29,1.61-.55,2.32-.82l.38-.14a72.9,72.9,0,0,0,11-5.27c.74-.43,1.48-.88,2.26-1.38l.25-.16,0,0a61.17,61.17,0,0,0-8.18-38.2ZM262.53,88c1.07-5.46,5.41-22.32,19.28-31.52l-.87-.2-.65-.14c-.87-.19-1.64-.34-2.37-.47l-.48-.08c-.88-.15-1.75-.28-2.58-.39l-.25,0c-.79-.1-1.68-.2-2.69-.29l-.53,0c-.89-.07-1.79-.13-2.67-.17l-.48,0c-1,0-1.94-.06-2.84-.06s-1.55,0-2.42,0l-.61,0-1.07.06-.66,0c-.19,0-.36,0-.53,0h-.19c-.69,0-1.44.12-2.35.22l-.6.07c-.75.09-1.44.18-2.1.28l-.29,0c-.66.1-1.37.22-2.22.38l-.65.12c-.68.13-1.35.27-2,.42l-.38.08-.34.08-.52.13-1.68.43-.21,0-.33.1-.29.09c-.64.18-1.38.39-2.11.62l-.59.2c-.85.27-1.6.53-2.3.79l-.37.14c-1,.36-1.83.7-2.66,1a73,73,0,0,0-8.35,4.16c-.74.43-1.47.87-2.25,1.37l-.26.16,0,0a61.49,61.49,0,0,0,7.88,38.25Zm6.67.38,28.46,16.43a58.29,58.29,0,0,1,18.41-3.11,40.92,40.92,0,0,1,18.58,4.13c-.08-.28-.17-.58-.27-.87l-.19-.59c-.28-.86-.54-1.62-.79-2.32l-.15-.39c-.35-1-.69-1.82-1-2.63l0-.08a72.8,72.8,0,0,0-4.14-8.35c-.42-.74-.88-1.5-1.36-2.26l-.17-.27-.58-.89-.46-.69c-.11-.19-.22-.35-.33-.51-.39-.58-.81-1.17-1.36-1.92l-.34-.46c-.39-.53-.79-1-1.2-1.57l-.85-1-.34-.42-.61-.72a71.79,71.79,0,0,0-5.07-5.36c-.72-.69-1.46-1.36-2.24-2l-.56-.49-1.09-.93c-.52-.42-1.08-.87-1.65-1.31l-.69-.53c-.8-.6-1.47-1.09-2.1-1.54l-.18-.12c-1.68-1.17-3.43-2.28-5.19-3.3-.74-.42-1.49-.84-2.3-1.27l-.31-.16-1-.49-.3-.15a73.63,73.63,0,0,0-7-3C275.49,65.32,270.51,82.35,269.2,88.41ZM230.76,141.9V109.3a67.24,67.24,0,0,1-10.45-38.64l-.34.27-.34.29-.77.65a72.11,72.11,0,0,0-7.46,7.37l-.38.44c-.36.41-.72.84-1.07,1.28s-.79,1-1.18,1.47l-.58.76c-.59.78-1.07,1.43-1.5,2l-.15.22c-1.18,1.69-2.28,3.43-3.29,5.17-.42.73-.84,1.49-1.27,2.31l-.15.28c-.18.34-.34.67-.51,1l-.14.28a73.57,73.57,0,0,0-3.45,8.09c-.42,1.17-.81,2.39-1.2,3.72l0,.08c-.16.55-.32,1.11-.47,1.66l0,.17c0,.12-.07.25-.1.37l-.08.33c-.21.84-.36,1.48-.5,2.07l-.14.69c-.19.87-.34,1.65-.47,2.37l-.08.52c-.15.84-.27,1.68-.38,2.51l-.05.33c-.1.79-.19,1.66-.28,2.65l-.06.59c-.07.88-.13,1.77-.17,2.64l0,.55c0,1-.06,1.91-.06,2.74v.16c0,.72,0,1.47.05,2.32,0,.2,0,.4,0,.59A61.41,61.41,0,0,0,230,141.91Z"/><path class="cls-1" d="M291.08,237H239a5.62,5.62,0,1,0,0,11.23h52a5.62,5.62,0,1,0,0-11.23Z"/><path class="cls-1" d="M291.08,205.7H239a5.62,5.62,0,1,0,0,11.23h52a5.62,5.62,0,1,0,0-11.23Z"/><path class="cls-1" d="M291.08,221.36H239a5.62,5.62,0,1,0,0,11.23h52a5.62,5.62,0,1,0,0-11.23Z"/><path class="cls-1" d="M277.46,252.68h-24.8a5.62,5.62,0,1,0,0,11.23h24.8a5.62,5.62,0,1,0,0-11.23Z"/></g><path class="cls-6" d="M70.39,88.85v53.38h-6V88.85Z"/><path class="cls-6" d="M96.17,142.16H90.45L81.6,99.68v42.55H76.42V88.85h8.31l8.77,42.63L102,88.85h8.31v53.38h-5.65V99.3Z"/><path class="cls-6" d="M128.05,88.85c8.39,0,12,5,12,13v6.41c0,8.46-4,12.88-12.43,12.88h-5.26v21h-6V88.85Zm-.46,27c4.43,0,6.56-2,6.56-7.16v-7.1c0-4.88-1.75-7.32-6.1-7.32h-5.72v21.58Z"/><path class="cls-6" d="M156.8,88.85c8.39,0,11.9,4.27,11.9,12.2v4.35c0,5.87-2.06,9.53-6.64,11,4.89,1.45,6.72,5.41,6.72,11.13v8.32c0,2.36.07,4.57,1.06,6.4h-6c-.69-1.52-1-2.9-1-6.48v-8.39c0-6-2.83-7.93-7.78-7.93h-4.2v22.8h-5.94V88.85ZM155.28,114c4.72,0,7.55-1.52,7.55-7.32v-5.11c0-4.8-1.76-7.32-6.18-7.32h-5.8V114Z"/><path class="cls-6" d="M193.94,112.49v5.34h-13v19h16v5.41H175V88.85h22v5.41h-16v18.23Z"/><path class="cls-6" d="M225.52,101.66v1.45h-5.65v-1.76c0-4.8-1.83-7.62-6.1-7.62s-6.1,2.82-6.1,7.55c0,12,17.92,13.12,17.92,28.14,0,8.08-3.88,13.35-12.05,13.35s-12-5.27-12-13.35v-3h5.57v3.35c0,4.81,2,7.63,6.25,7.63s6.26-2.82,6.26-7.63c0-11.89-17.85-13-17.85-28.06,0-8.24,3.81-13.35,11.82-13.35S225.52,93.58,225.52,101.66Z"/><path class="cls-6" d="M236.73,88.85v53.38h-5.95V88.85Z"/><path class="cls-6" d="M266.85,101.74v27.6c0,8.09-4,13.43-12.27,13.43s-12.21-5.34-12.21-13.43v-27.6c0-8.16,4-13.43,12.21-13.43S266.85,93.58,266.85,101.74Zm-18.6-.31v28.22c0,4.88,2.06,7.7,6.33,7.7s6.33-2.82,6.33-7.7V101.43c0-4.8-2-7.7-6.33-7.7S248.25,96.63,248.25,101.43Zm13.88-23.64L255,85.64h-4.11l5.33-7.85Z"/><path class="cls-6" d="M277.76,142.23h-5.34V88.85H280l12.36,38.59V88.85h5.26v53.38h-6.18L277.76,99.07Z"/><path class="cls-6" d="M328,88.85c8.31,0,12.13,5,12.13,13.27V129c0,8.16-3.82,13.19-12.13,13.19H315.51V88.85Zm-.07,48c4.27,0,6.33-2.67,6.33-7.55V101.81c0-4.88-2.06-7.55-6.41-7.55h-6.41v42.56Z"/><path class="cls-6" d="M351.67,88.85v53.38h-5.95V88.85Z"/><path class="cls-6" d="M381.33,101.74v4.57h-5.64v-4.88c0-4.8-1.91-7.7-6.26-7.7s-6.25,2.9-6.25,7.7v28.22c0,4.8,2,7.7,6.25,7.7s6.26-2.9,6.26-7.7V119H370.2v-5.34h11.13v15.71c0,8.09-3.81,13.43-12.05,13.43s-12-5.34-12-13.43v-27.6c0-8.09,3.81-13.43,12-13.43S381.33,93.65,381.33,101.74Z"/><path class="cls-6" d="M392.92,88.85v53.38H387V88.85Z"/><path class="cls-6" d="M406.8,142.23v-48H397V88.85h25.62v5.41h-9.84v48Z"/><path class="cls-6" d="M429.84,131.48l-2.06,10.75h-5.49l10.22-53.38h8.61l10.22,53.38H445.4l-2.06-10.75Zm.76-5.11h11.9l-6-30.81Z"/><path class="cls-6" d="M456,142.23V88.85H462v48H477.2v5.41Z"/><path class="cls-7" d="M92.79,222.89H81.49L79.56,210H65.82l-1.93,12.92H53.61L65,151.66H81.39ZM67.25,200.3H78l-5.39-36Z"/><path class="cls-7" d="M98,151.66h11.19v61.06h18.42v10.17H98Z"/><path class="cls-7" d="M124.13,151.66h34.6v10.18H147v61H135.83v-61h-11.7Z"/><path class="cls-7" d="M196,222.89h-11.3L182.74,210H169l-1.93,12.92H156.79l11.4-71.23h16.38ZM170.43,200.3h10.78l-5.39-36Z"/><path class="cls-7" d="M249.39,196.33v9.47c0,11.4-5.7,17.91-16.69,17.91S216,217.2,216,205.8v-37c0-11.4,5.7-17.91,16.69-17.91s16.69,6.51,16.69,17.91v6.92H238.81v-7.63c0-5.09-2.24-7-5.8-7s-5.8,1.94-5.8,7v38.46c0,5.09,2.24,6.92,5.8,6.92s5.8-1.83,5.8-6.92V196.33Z"/><path class="cls-7" d="M292.43,222.89H281.14L279.21,210H265.47l-1.94,12.92H253.26l11.39-71.23H281ZM266.89,200.3h10.79l-5.39-36Z"/><path class="cls-7" d="M297.62,151.66h11.2v61.06h18.41v10.17H297.62Z"/><path class="cls-7" d="M332.12,151.66h11.19v71.23H332.12Z"/><path class="cls-7" d="M351.45,151.66h17.71c11.19,0,16.68,6.21,16.68,17.61v36c0,11.4-5.49,17.6-16.68,17.6H351.45Zm11.19,10.18v50.88H369c3.56,0,5.7-1.83,5.7-6.92v-37c0-5.09-2.14-6.92-5.7-6.92Z"/><path class="cls-7" d="M429.09,222.89H417.8L415.86,210H402.12l-1.93,12.92H389.91l11.4-71.23h16.38ZM403.55,200.3h10.79l-5.4-36Z"/><path class="cls-7" d="M434.28,151.66H452c11.19,0,16.68,6.21,16.68,17.61v36c0,11.4-5.49,17.6-16.68,17.6H434.28Zm11.19,10.18v50.88h6.31c3.56,0,5.7-1.83,5.7-6.92v-37c0-5.09-2.14-6.92-5.7-6.92Z"/></svg>